<?xml version="1.0" encoding="UTF-8"?>
<svg width="1085.3" height="475.06" version="1.1" viewBox="0 0 287.14 125.69" xmlns="http://www.w3.org/2000/svg">
    <defs>
        <linearGradient id="linearGradient1262" x1="458.15" x2="458.15" y1="11.124" y2="117.78" gradientUnits="userSpaceOnUse">
            <stop stop-color="#fff" offset="0" />
            <stop stop-color="#fff" offset=".67402" />
            <stop stop-color="#e5e2f6" offset="1" />
        </linearGradient>
        <linearGradient id="linearGradient1307" x1="1799" x2="1799" y1="170.09" y2="435.8" gradientUnits="userSpaceOnUse">
            <stop stop-color="#eeebf9" offset="0" />
            <stop stop-color="#f7f3ff" stop-opacity="0" offset="1" />
        </linearGradient>
        <linearGradient id="linearGradient1424" x1="1799" x2="1799" y1="170.09" y2="435.8" gradientTransform="matrix(.14508 0 0 .14508 210.69 33.31)" gradientUnits="userSpaceOnUse">
            <stop stop-color="#e4e4f4" offset="0" />
            <stop stop-color="#f9f9f9" stop-opacity="0" offset="1" />
        </linearGradient>
        <linearGradient id="linearGradient1551" x1="327.69" x2="327.65" y1="61.687" y2="78.857" gradientUnits="userSpaceOnUse">
            <stop stop-color="#fff" offset="0" />
            <stop stop-color="#ced4fe" stop-opacity=".19608" offset="1" />
        </linearGradient>
        <linearGradient id="linearGradient1555" x1="332.55" x2="332.59" y1="76.837" y2="57.381" gradientTransform="matrix(.769 0 0 .73011 73.527 17.493)" gradientUnits="userSpaceOnUse">
            <stop stop-color="#fff" stop-opacity=".30074" offset="0" />
            <stop stop-color="#eaeafa" offset="1" />
        </linearGradient>
        <linearGradient id="linearGradient1573" x1="327.69" x2="327.65" y1="61.687" y2="78.857" gradientUnits="userSpaceOnUse">
            <stop stop-color="#fff" offset="0" />
            <stop stop-color="#e6e6e6" stop-opacity=".19437" offset="1" />
        </linearGradient>
        <linearGradient id="linearGradient1575" x1="332.55" x2="332.59" y1="76.837" y2="57.381" gradientTransform="matrix(.769 0 0 .73011 73.527 17.493)" gradientUnits="userSpaceOnUse">
            <stop stop-color="#fff" stop-opacity=".30074" offset="0" />
            <stop stop-color="#f2f2f2" offset="1" />
        </linearGradient>
        <linearGradient id="linearGradient1591" x1="332.55" x2="332.59" y1="76.837" y2="57.381" gradientTransform="matrix(.23234 0 0 .22059 259.28 49.926)" gradientUnits="userSpaceOnUse">
            <stop stop-color="#eaeafa" offset="0" />
            <stop stop-color="#fff" stop-opacity=".82923" offset="1" />
        </linearGradient>
    </defs>
    <g transform="matrix(1.1284 0 0 1.1284 -359.62 -12.972)">
        <path
            d="m486.41 11.497c-8.2764 0.01022-15.487 5.9059-17.496 14.306-1.8409-0.642-3.7687-0.96935-5.7092-0.96945-8.8917 2.81e-4 -16.46 6.7728-17.839 15.963-6.1032-7.4575-15.231-11.782-24.868-11.782-17.747 5.5e-5 -32.134 14.387-32.134 32.134-5e-5 2.8948 0.39106 5.7763 1.1627 8.5664-3.6155 0.55687-7.0504 1.9523-10.03 4.0747-3.1499-4.1975-8.0918-6.6677-13.34-6.6678-7.9651 3.36e-4 -14.818 5.6326-16.362 13.447-0.25839-0.0166-0.51725-0.02487-0.77618-0.0248-6.657 4.6e-5 -12.053 5.3966-12.054 12.054 6e-5 6.657 5.1951 12.105 11.55 14.705 6.1931 2.5342 14.345 0.85682 20.432-1.323 5.8778 8.1292 13.886 10.336 24.147 10.336 5.9238 8e-5 11.628-2.243 15.965-6.2782 4.7709 7.9722 13.379 12.852 22.669 12.852 10.56 1.2e-4 20.106-6.2882 24.274-15.991 5.8256 4.2974 12.874 6.616 20.114 6.6161 8.6362-9e-5 16.946-3.2979 23.233-9.2196 3.6638 8.2368 11.74 13.531 20.641 13.531 4.3818-4e-5 8.6696-1.2907 12.343-3.7155 3.0189 3.8318 7.4176 6.0358 12.046 6.0358 8.7765 7e-5 15.891-7.7696 15.892-17.354 1.3e-4 -9.5846-7.1148-17.355-15.892-17.354-1.188-4.4e-5 -2.3722 0.14539-3.5305 0.43356-2.797-6.7147-8.5641-11.685-15.544-13.396 2.6917-3.8773 4.1366-8.505 4.1367-13.249 0-12.701-10.14-22.997-22.649-22.997-1.0926 2.03e-4 -2.1838 0.08068-3.2649 0.24081 0.63664-1.9585 0.96154-4.0131 0.96171-6.0818 1.3e-4 -10.435-8.0847-18.893-18.058-18.893h-0.0212z"
            fill="url(#linearGradient1262)" style="paint-order:stroke markers fill" />
        <path transform="scale(.26458)"
            d="m1827.2 99.578a62.661 62.653 0 0 0-60.711 47.441 62.661 62.653 0 0 0-19.81-3.2148 62.661 62.653 0 0 0-61.902 52.938 111.51 106.56 0 0 0-86.291-39.072 111.51 106.56 0 0 0-111.51 106.56 111.51 106.56 0 0 0 4.0351 28.408 81.327 77.721 0 0 0-34.805 13.512 57.875 55.309 0 0 0-46.289-22.111 57.875 55.309 0 0 0-56.775 44.592 41.826 39.972 0 0 0-2.6934-0.082 41.826 39.972 0 0 0-41.826 39.971 41.826 39.972 0 0 0 10.994 27.008 45.557 45.557 0 0 0 38.137-21.436 63.037 63.037 0 0 0 26.127 5.6699 63.037 63.037 0 0 0 17.228-2.4004 88.581 88.581 0 0 0 7.4726 17.279 57.875 55.309 0 0 0 1.336 0.0156 57.875 55.309 0 0 0 15.818-2.1055 81.327 77.721 0 0 0 36.391 43.877 88.581 88.581 0 0 0 23.56 3.1894 88.581 88.581 0 0 0 60.34-23.729 99.851 99.851 0 0 0 9.4668 13.238 81.327 77.721 0 0 0 3.2929-2.7715 91.674 87.609 0 0 0 23.764 25.172 99.851 99.851 0 0 0 49.156 12.938 99.851 99.851 0 0 0 91.742-60.438 128.06 128.06 0 0 0 76.022 25.006 128.06 128.06 0 0 0 87.809-34.846 85.601 86.916 0 0 0 78.012 51.141 85.601 86.916 0 0 0 13.281-1.0527 78.591 76.26 0 0 0 7.9765-4.4121 55.144 57.549 0 0 0 1.9278 2.2168 85.601 86.916 0 0 0 23.467-10.795 60.062 65.591 0 0 0 40.879 22.615 55.144 57.549 0 0 0 30.672-51.57 55.144 57.549 0 0 0-55.145-57.549 55.144 57.549 0 0 0-12.25 1.4375 78.591 76.26 0 0 0-53.938-44.424 78.591 76.26 0 0 0 14.354-43.936 78.591 76.26 0 0 0-78.592-76.26 78.591 76.26 0 0 0-11.328 0.79883 62.661 62.653 0 0 0 3.336-20.168 62.661 62.653 0 0 0-62.66-62.654 62.661 62.653 0 0 0-0.074 0z"
            fill="url(#linearGradient1307)" style="paint-order:stroke markers fill" />
        <path
            d="m476.81 44.37a9.8875 9.8863 0 0 0-9.5799 7.486 9.8875 9.8863 0 0 0-3.126-0.50728 9.8875 9.8863 0 0 0-9.7679 8.3533 17.595 16.815 0 0 0-13.616-6.1654 17.595 16.815 0 0 0-17.595 16.815 17.595 16.815 0 0 0 0.63672 4.4827 12.833 12.264 0 0 0-5.492 2.1321 9.1324 8.7275 0 0 0-7.3042-3.4891 9.1324 8.7275 0 0 0-8.9589 7.0364 6.6 6.3073 0 0 0-0.425-0.01294 6.6 6.3073 0 0 0-6.6 6.3072 6.6 6.3073 0 0 0 1.7348 4.2617 7.1887 7.1887 0 0 0 6.0178-3.3824 9.947 9.947 0 0 0 4.1227 0.89468 9.947 9.947 0 0 0 2.7186-0.37877 13.978 13.978 0 0 0 1.1792 2.7266 9.1324 8.7275 0 0 0 0.2108 0.0023 9.1324 8.7275 0 0 0 2.4961-0.33223 12.833 12.264 0 0 0 5.7423 6.9236 13.978 13.978 0 0 0 3.7177 0.50328 13.978 13.978 0 0 0 9.5213-3.7442 15.756 15.756 0 0 0 1.4938 2.0889 12.833 12.264 0 0 0 0.5196-0.43733 14.466 13.824 0 0 0 3.7498 3.972 15.756 15.756 0 0 0 7.7566 2.0415 15.756 15.756 0 0 0 14.476-9.5367 20.207 20.207 0 0 0 11.996 3.9458 20.207 20.207 0 0 0 13.856-5.4985 13.507 13.715 0 0 0 12.31 8.0697 13.507 13.715 0 0 0 2.0957-0.16611 12.401 12.033 0 0 0 1.2587-0.69621 8.7014 9.081 0 0 0 0.30419 0.34979 13.507 13.715 0 0 0 3.7029-1.7034 9.4775 10.35 0 0 0 6.4505 3.5686 8.7014 9.081 0 0 0 4.8399-8.1375 8.7014 9.081 0 0 0-8.7015-9.0809 8.7014 9.081 0 0 0-1.933 0.22683 12.401 12.033 0 0 0-8.5111-7.0098 12.401 12.033 0 0 0 2.2649-6.9328 12.401 12.033 0 0 0-12.401-12.033 12.401 12.033 0 0 0-1.7875 0.12605 9.8875 9.8863 0 0 0 0.5264-3.1824 9.8875 9.8863 0 0 0-9.8874-9.8865 9.8875 9.8863 0 0 0-0.0118 0z"
            fill="#fff" style="paint-order:stroke markers fill" />
        <path
            d="m475.78 47.757a9.0905 9.0894 0 0 0-8.8077 6.8826 9.0905 9.0894 0 0 0-2.874-0.4664 9.0905 9.0894 0 0 0-8.9805 7.6799 16.177 15.46 0 0 0-12.519-5.6684 16.177 15.46 0 0 0-16.177 15.46 16.177 15.46 0 0 0 0.5854 4.1213 11.799 11.275 0 0 0-5.0493 1.9602 8.3963 8.024 0 0 0-6.7154-3.2078 8.3963 8.024 0 0 0-8.2367 6.4692 6.068 5.7989 0 0 0-0.39075-0.0119 6.068 5.7989 0 0 0-6.068 5.7988 6.068 5.7989 0 0 0 1.595 3.9182 6.6092 6.6092 0 0 0 5.5327-3.1098 9.1452 9.1452 0 0 0 3.7904 0.82256 9.1452 9.1452 0 0 0 2.4994-0.34824 12.851 12.851 0 0 0 1.0841 2.5068 8.3963 8.024 0 0 0 0.19381 0.0021 8.3963 8.024 0 0 0 2.2949-0.30545 11.799 11.275 0 0 0 5.2794 6.3655 12.851 12.851 0 0 0 3.4181 0.46271 12.851 12.851 0 0 0 8.7538-3.4424 14.486 14.486 0 0 0 1.3734 1.9206 11.799 11.275 0 0 0 0.47772-0.40208 13.3 12.71 0 0 0 3.4475 3.6518 14.486 14.486 0 0 0 7.1314 1.8769 14.486 14.486 0 0 0 13.31-8.768 18.579 18.579 0 0 0 11.029 3.6277 18.579 18.579 0 0 0 12.739-5.0553 12.419 12.609 0 0 0 11.318 7.4193 12.419 12.609 0 0 0 1.9268-0.15272 11.402 11.064 0 0 0 1.1572-0.64009 8 8.349 0 0 0 0.27967 0.3216 12.419 12.609 0 0 0 3.4045-1.5661 8.7135 9.5156 0 0 0 5.9305 3.2809 8 8.349 0 0 0 4.4498-7.4816 8 8.349 0 0 0-8.0001-8.3489 8 8.349 0 0 0-1.7772 0.20855 11.402 11.064 0 0 0-7.825-6.4448 11.402 11.064 0 0 0 2.0824-6.374 11.402 11.064 0 0 0-11.402-11.063 11.402 11.064 0 0 0-1.6434 0.11589 9.0905 9.0894 0 0 0 0.48397-2.9259 9.0905 9.0894 0 0 0-9.0905-9.0896 9.0905 9.0894 0 0 0-0.0108 0z"
            fill="url(#linearGradient1424)" style="paint-order:stroke markers fill" />
    </g>
    <g transform="translate(-295.17 -16.718)">
        <path d="m314.59 46.275a8.4482 10.279 0 0 0-8.3932 9.28 12.527 9.1019 0 0 0-11.027 9.0366 12.527 9.1019 0 0 0 12.527 9.1016 12.527 9.1019 0 0 0 9.3253-3.0249 14.867 6.0794 0 0 0 13.01 3.138 14.867 6.0794 0 0 0 10.665-1.8443 6.9184 6.0794 0 0 0 5.2248 2.0948 6.9184 6.0794 0 0 0 6.2186-3.4157 5.0709 3.8831 0 0 0 2.4315 0.4753 5.0709 3.8831 0 0 0 5.0707-3.883 5.0709 3.8831 0 0 0-5.019-3.8825 4.2653 3.8831 0 0 0 0.33041-1.4985 4.2653 3.8831 0 0 0-4.2654-3.883 4.2653 3.8831 0 0 0-0.85337 0.07878 5.9045 6.3188 0 0 0-5.8523-5.4794 5.9045 6.3188 0 0 0-4.6505 2.4259 4.3651 6.0148 0 0 0-3.0505-1.7125 4.3651 6.0148 0 0 0-2.5054 1.089 6.5819 6.7815 0 0 0-6.2097-4.5341 6.5819 6.7815 0 0 0-5.2093 2.6369 8.4482 10.279 0 0 0-7.7542-6.199 8.4482 10.279 0 0 0-0.0149 0z" fill="url(#linearGradient1551)" style="paint-order:stroke markers fill" />
        <path d="m315.44 51.279a6.4967 7.505 0 0 0-6.4544 6.7755 9.6333 6.6454 0 0 0-8.4794 6.5977 9.6333 6.6454 0 0 0 9.6335 6.6452 9.6333 6.6454 0 0 0 7.1712-2.2086 11.432 4.4386 0 0 0 10.005 2.2911 11.432 4.4386 0 0 0 8.2014-1.3465 5.3202 4.4386 0 0 0 4.0178 1.5294 5.3202 4.4386 0 0 0 4.7821-2.4938 3.8995 2.8351 0 0 0 1.8698 0.34703 3.8995 2.8351 0 0 0 3.8994-2.835 3.8995 2.8351 0 0 0-3.8596-2.8347 3.28 2.8351 0 0 0 0.25409-1.094 3.28 2.8351 0 0 0-3.28-2.835 3.28 2.8351 0 0 0-0.65624 0.05752 4.5406 4.6134 0 0 0-4.5004-4.0005 4.5406 4.6134 0 0 0-3.5762 1.7712 3.3568 4.3915 0 0 0-2.3458-1.2503 3.3568 4.3915 0 0 0-1.9266 0.79511 5.0615 4.9513 0 0 0-4.7752-3.3104 5.0615 4.9513 0 0 0-4.0059 1.9252 6.4967 7.505 0 0 0-5.963-4.526 6.4967 7.505 0 0 0-0.0115 0z" fill="url(#linearGradient1555)" style="paint-order:stroke markers fill" />
        <path d="m332.37 60.134a1.9629 2.2675 0 0 0-1.9501 2.0471 2.9106 2.0078 0 0 0-2.5619 1.9934 2.9106 2.0078 0 0 0 2.9106 2.0077 2.9106 2.0078 0 0 0 2.1667-0.66728 3.4541 1.3411 0 0 0 3.0229 0.69222 3.4541 1.3411 0 0 0 2.4779-0.40683 1.6074 1.3411 0 0 0 1.2139 0.4621 1.6074 1.3411 0 0 0 1.4448-0.75348 1.1782 0.85659 0 0 0 0.56493 0.10485 1.1782 0.85659 0 0 0 1.1781-0.85656 1.1782 0.85659 0 0 0-1.1661-0.85647 0.99102 0.85659 0 0 0 0.0768-0.33055 0.99102 0.85659 0 0 0-0.99101-0.85656 0.99102 0.85659 0 0 0-0.19827 0.01738 1.3719 1.3939 0 0 0-1.3598-1.2087 1.3719 1.3939 0 0 0-1.0805 0.53514 1.0142 1.3268 0 0 0-0.70877-0.37777 1.0142 1.3268 0 0 0-0.5821 0.24023 1.5292 1.496 0 0 0-1.4428-1.0002 1.5292 1.496 0 0 0-1.2103 0.58168 1.9629 2.2675 0 0 0-1.8016-1.3675 1.9629 2.2675 0 0 0-4e-3 0z" fill="url(#linearGradient1591)" style="paint-order:stroke markers fill" />
    </g>
    <g transform="matrix(.698 0 0 .74942 36.114 14.396)">
        <path d="m314.59 46.275a8.4482 10.279 0 0 0-8.3932 9.28 12.527 9.1019 0 0 0-11.027 9.0366 12.527 9.1019 0 0 0 12.527 9.1016 12.527 9.1019 0 0 0 9.3253-3.0249 14.867 6.0794 0 0 0 13.01 3.138 14.867 6.0794 0 0 0 10.665-1.8443 6.9184 6.0794 0 0 0 5.2248 2.0948 6.9184 6.0794 0 0 0 6.2186-3.4157 5.0709 3.8831 0 0 0 2.4315 0.4753 5.0709 3.8831 0 0 0 5.0707-3.883 5.0709 3.8831 0 0 0-5.019-3.8825 4.2653 3.8831 0 0 0 0.33041-1.4985 4.2653 3.8831 0 0 0-4.2654-3.883 4.2653 3.8831 0 0 0-0.85337 0.07878 5.9045 6.3188 0 0 0-5.8523-5.4794 5.9045 6.3188 0 0 0-4.6505 2.4259 4.3651 6.0148 0 0 0-3.0505-1.7125 4.3651 6.0148 0 0 0-2.5054 1.089 6.5819 6.7815 0 0 0-6.2097-4.5341 6.5819 6.7815 0 0 0-5.2093 2.6369 8.4482 10.279 0 0 0-7.7542-6.199 8.4482 10.279 0 0 0-0.0149 0z" fill="url(#linearGradient1573)" style="paint-order:stroke markers fill" />
        <path d="m315.44 51.279a6.4967 7.505 0 0 0-6.4544 6.7755 9.6333 6.6454 0 0 0-8.4794 6.5977 9.6333 6.6454 0 0 0 9.6335 6.6452 9.6333 6.6454 0 0 0 7.1712-2.2086 11.432 4.4386 0 0 0 10.005 2.2911 11.432 4.4386 0 0 0 8.2014-1.3465 5.3202 4.4386 0 0 0 4.0178 1.5294 5.3202 4.4386 0 0 0 4.7821-2.4938 3.8995 2.8351 0 0 0 1.8698 0.34703 3.8995 2.8351 0 0 0 3.8994-2.835 3.8995 2.8351 0 0 0-3.8596-2.8347 3.28 2.8351 0 0 0 0.25409-1.094 3.28 2.8351 0 0 0-3.28-2.835 3.28 2.8351 0 0 0-0.65624 0.05752 4.5406 4.6134 0 0 0-4.5004-4.0005 4.5406 4.6134 0 0 0-3.5762 1.7712 3.3568 4.3915 0 0 0-2.3458-1.2503 3.3568 4.3915 0 0 0-1.9266 0.79511 5.0615 4.9513 0 0 0-4.7752-3.3104 5.0615 4.9513 0 0 0-4.0059 1.9252 6.4967 7.505 0 0 0-5.963-4.526 6.4967 7.505 0 0 0-0.0115 0z" fill="url(#linearGradient1575)" style="paint-order:stroke markers fill" />
    </g>
</svg>
