<?xml version="1.0" encoding="UTF-8"?>
<svg width="24" height="24" version="1.1" viewBox="0 0 6.35 6.35" xmlns="http://www.w3.org/2000/svg">
    <g transform="translate(-1.0233e-7 .63021)" fill="none" stroke="#6c6c86" stroke-width=".43052">
        <path d="m5.9378 0.94112c-0.11817-0.12379-0.28135-0.19694-0.46703-0.19694h-0.93406v-0.011248c0-0.14067-0.056271-0.27572-0.15193-0.36575-0.095658-0.095656-0.22508-0.15193-0.36575-0.15193h-1.6881c-0.1463 0-0.27572 0.056271-0.37137 0.15193-0.095658 0.095658-0.15193 0.22508-0.15193 0.36575v0.011248h-0.92844c-0.18569 0-0.34887 0.073148-0.46703 0.19694-0.11817 0.11817-0.19694 0.28697-0.19694 0.46703v2.8022c0 0.18569 0.07315 0.34887 0.19694 0.46703 0.11817 0.11816 0.28697 0.19694 0.46703 0.19694h4.5915c0.18569 0 0.34887-0.07315 0.46703-0.19694 0.11817-0.11817 0.19694-0.28697 0.19694-0.46703v-2.8022c0-0.18569-0.07315-0.34887-0.19694-0.46703z" />
        <path d="m3.9403 3.5801c-0.19694 0.19131-0.46703 0.3151-0.76526 0.3151-0.29823 0-0.56832-0.12379-0.76526-0.3151-0.19694-0.19694-0.31511-0.46703-0.31511-0.76526s0.12379-0.56832 0.31511-0.76526c0.19694-0.19694 0.46703-0.3151 0.76526-0.3151 0.29822 0 0.56831 0.12379 0.76526 0.3151 0.19694 0.19694 0.31511 0.46703 0.31511 0.76526 0.00563 0.29822-0.11817 0.56832-0.31511 0.76526z" />
    </g>
</svg>
