<?xml version="1.0" encoding="UTF-8"?>
<svg width="24" height="24" version="1.1" viewBox="0 0 6.35 6.35" xmlns="http://www.w3.org/2000/svg">
    <path d="m0.32247 5.0526c0.54961 0.34876 1.1893 0.53304 1.8497 0.53304 0.96714 0 1.8534-0.37152 2.4957-1.046 0.61466-0.64558 0.95279-1.513 0.93597-2.3933 0.233-0.19937 0.50707-0.58004 0.50707-0.95106 0-0.14223-0.15435-0.23251-0.27951-0.16004-0.2189 0.12862-0.41851 0.16226-0.62381 0.10463-0.41926-0.40862-1.0433-0.4947-1.5692-0.21124-0.45957 0.24735-0.71509 0.7-0.69208 1.1947-0.77643-0.094735-1.4937-0.48406-1.9939-1.0891-0.082119-0.098692-0.23795-0.087066-0.30325 0.024735-0.24092 0.41258-0.14449 0.90576 0.06501 1.2919-0.099682 0.017552-0.25522 0.086356-0.25522 0.17713 0 0.38809 0.31008 0.8061 0.59132 1.0495-0.052439 0.05046-0.20521 0.064077-0.18294 0.13086 0.12367 0.37152 0.40367 0.66191 0.75367 0.80735-0.38067 0.1818-0.80166 0.2424-1.1764 0.19639-0.19392-0.026218-0.28965 0.23449-0.12219 0.3406z" fill="none" stroke="#6c6c86" stroke-width=".47814" />
</svg>
